<mxfile host="app.diagrams.net" modified="2021-03-10T11:13:48.040Z" agent="5.0 (Windows NT 10.0; Win64; x64) AppleWebKit/537.36 (KHTML, like Gecko) Chrome/88.0.4324.150 Safari/537.36 Edg/88.0.705.63" etag="aKbWykvaH8Fn0En5e_Wu" version="14.4.5" type="github">
  <diagram id="C5RBs43oDa-KdzZeNtuy" name="Page-1">
    <mxGraphModel dx="2114" dy="1963" grid="1" gridSize="10" guides="1" tooltips="1" connect="1" arrows="1" fold="1" page="1" pageScale="1" pageWidth="827" pageHeight="1169" math="0" shadow="0">
      <root>
        <mxCell id="WIyWlLk6GJQsqaUBKTNV-0" />
        <mxCell id="WIyWlLk6GJQsqaUBKTNV-1" parent="WIyWlLk6GJQsqaUBKTNV-0" />
        <mxCell id="Ome7uWxihJjIIp5LtsuK-85" value="" style="rounded=1;whiteSpace=wrap;html=1;arcSize=17;shadow=0;sketch=0;glass=0;" vertex="1" parent="WIyWlLk6GJQsqaUBKTNV-1">
          <mxGeometry x="-70" y="-500" width="1600" height="1140" as="geometry" />
        </mxCell>
        <mxCell id="zkfFHV4jXpPFQw0GAbJ--0" value="Critério" style="swimlane;fontStyle=2;align=center;verticalAlign=top;childLayout=stackLayout;horizontal=1;startSize=26;horizontalStack=0;resizeParent=1;resizeLast=0;collapsible=1;marginBottom=0;rounded=0;shadow=0;strokeWidth=1;" parent="WIyWlLk6GJQsqaUBKTNV-1" vertex="1">
          <mxGeometry x="30" y="-445" width="350" height="1050" as="geometry">
            <mxRectangle x="230" y="140" width="160" height="26" as="alternateBounds" />
          </mxGeometry>
        </mxCell>
        <mxCell id="zkfFHV4jXpPFQw0GAbJ--1" value="double senso1nota1, string senso1desvio1" style="text;align=left;verticalAlign=top;spacingLeft=4;spacingRight=4;overflow=hidden;rotatable=0;points=[[0,0.5],[1,0.5]];portConstraint=eastwest;" parent="zkfFHV4jXpPFQw0GAbJ--0" vertex="1">
          <mxGeometry y="26" width="350" height="26" as="geometry" />
        </mxCell>
        <mxCell id="zkfFHV4jXpPFQw0GAbJ--2" value="double  s1r2 = string Observacoes" style="text;align=left;verticalAlign=top;spacingLeft=4;spacingRight=4;overflow=hidden;rotatable=0;points=[[0,0.5],[1,0.5]];portConstraint=eastwest;rounded=0;shadow=0;html=0;" parent="zkfFHV4jXpPFQw0GAbJ--0" vertex="1">
          <mxGeometry y="52" width="350" height="26" as="geometry" />
        </mxCell>
        <mxCell id="zkfFHV4jXpPFQw0GAbJ--3" value="double  s1r3 = string Observacoes" style="text;align=left;verticalAlign=top;spacingLeft=4;spacingRight=4;overflow=hidden;rotatable=0;points=[[0,0.5],[1,0.5]];portConstraint=eastwest;rounded=0;shadow=0;html=0;" parent="zkfFHV4jXpPFQw0GAbJ--0" vertex="1">
          <mxGeometry y="78" width="350" height="26" as="geometry" />
        </mxCell>
        <mxCell id="Ome7uWxihJjIIp5LtsuK-0" value="double  s1r4 = string Observacoes" style="text;align=left;verticalAlign=top;spacingLeft=4;spacingRight=4;overflow=hidden;rotatable=0;points=[[0,0.5],[1,0.5]];portConstraint=eastwest;rounded=0;shadow=0;html=0;" vertex="1" parent="zkfFHV4jXpPFQw0GAbJ--0">
          <mxGeometry y="104" width="350" height="26" as="geometry" />
        </mxCell>
        <mxCell id="Ome7uWxihJjIIp5LtsuK-124" value="double  s1r5 = string Observacoes" style="text;align=left;verticalAlign=top;spacingLeft=4;spacingRight=4;overflow=hidden;rotatable=0;points=[[0,0.5],[1,0.5]];portConstraint=eastwest;rounded=0;shadow=0;html=0;" vertex="1" parent="zkfFHV4jXpPFQw0GAbJ--0">
          <mxGeometry y="130" width="350" height="26" as="geometry" />
        </mxCell>
        <mxCell id="Ome7uWxihJjIIp5LtsuK-1" value="double TotalSenso1" style="text;align=left;verticalAlign=top;spacingLeft=4;spacingRight=4;overflow=hidden;rotatable=0;points=[[0,0.5],[1,0.5]];portConstraint=eastwest;rounded=0;shadow=0;html=0;" vertex="1" parent="zkfFHV4jXpPFQw0GAbJ--0">
          <mxGeometry y="156" width="350" height="26" as="geometry" />
        </mxCell>
        <mxCell id="Ome7uWxihJjIIp5LtsuK-125" value="double PorcentagemSenso1" style="text;align=left;verticalAlign=top;spacingLeft=4;spacingRight=4;overflow=hidden;rotatable=0;points=[[0,0.5],[1,0.5]];portConstraint=eastwest;rounded=0;shadow=0;html=0;" vertex="1" parent="zkfFHV4jXpPFQw0GAbJ--0">
          <mxGeometry y="182" width="350" height="26" as="geometry" />
        </mxCell>
        <mxCell id="Ome7uWxihJjIIp5LtsuK-41" value="" style="line;html=1;strokeWidth=1;align=left;verticalAlign=middle;spacingTop=-1;spacingLeft=3;spacingRight=3;rotatable=0;labelPosition=right;points=[];portConstraint=eastwest;" vertex="1" parent="zkfFHV4jXpPFQw0GAbJ--0">
          <mxGeometry y="208" width="350" height="8" as="geometry" />
        </mxCell>
        <mxCell id="Ome7uWxihJjIIp5LtsuK-16" value="double s2r1, string Observacoes" style="text;align=left;verticalAlign=top;spacingLeft=4;spacingRight=4;overflow=hidden;rotatable=0;points=[[0,0.5],[1,0.5]];portConstraint=eastwest;rounded=0;shadow=0;html=0;" vertex="1" parent="zkfFHV4jXpPFQw0GAbJ--0">
          <mxGeometry y="216" width="350" height="30" as="geometry" />
        </mxCell>
        <mxCell id="Ome7uWxihJjIIp5LtsuK-17" value="double s2r2, string Observacoes" style="text;align=left;verticalAlign=top;spacingLeft=4;spacingRight=4;overflow=hidden;rotatable=0;points=[[0,0.5],[1,0.5]];portConstraint=eastwest;rounded=0;shadow=0;html=0;" vertex="1" parent="zkfFHV4jXpPFQw0GAbJ--0">
          <mxGeometry y="246" width="350" height="26" as="geometry" />
        </mxCell>
        <mxCell id="Ome7uWxihJjIIp5LtsuK-18" value="double  s2r3 = string Observacoes" style="text;align=left;verticalAlign=top;spacingLeft=4;spacingRight=4;overflow=hidden;rotatable=0;points=[[0,0.5],[1,0.5]];portConstraint=eastwest;rounded=0;shadow=0;html=0;" vertex="1" parent="zkfFHV4jXpPFQw0GAbJ--0">
          <mxGeometry y="272" width="350" height="26" as="geometry" />
        </mxCell>
        <mxCell id="Ome7uWxihJjIIp5LtsuK-19" value="double s2r4 = string Observacoes" style="text;align=left;verticalAlign=top;spacingLeft=4;spacingRight=4;overflow=hidden;rotatable=0;points=[[0,0.5],[1,0.5]];portConstraint=eastwest;rounded=0;shadow=0;html=0;" vertex="1" parent="zkfFHV4jXpPFQw0GAbJ--0">
          <mxGeometry y="298" width="350" height="26" as="geometry" />
        </mxCell>
        <mxCell id="Ome7uWxihJjIIp5LtsuK-20" value="double s2r5 = string Observacoes" style="text;align=left;verticalAlign=top;spacingLeft=4;spacingRight=4;overflow=hidden;rotatable=0;points=[[0,0.5],[1,0.5]];portConstraint=eastwest;rounded=0;shadow=0;html=0;" vertex="1" parent="zkfFHV4jXpPFQw0GAbJ--0">
          <mxGeometry y="324" width="350" height="26" as="geometry" />
        </mxCell>
        <mxCell id="Ome7uWxihJjIIp5LtsuK-126" value="double Pontuacao" style="text;align=left;verticalAlign=top;spacingLeft=4;spacingRight=4;overflow=hidden;rotatable=0;points=[[0,0.5],[1,0.5]];portConstraint=eastwest;rounded=0;shadow=0;html=0;" vertex="1" parent="zkfFHV4jXpPFQw0GAbJ--0">
          <mxGeometry y="350" width="350" height="26" as="geometry" />
        </mxCell>
        <mxCell id="Ome7uWxihJjIIp5LtsuK-127" value="double Porcentagem" style="text;align=left;verticalAlign=top;spacingLeft=4;spacingRight=4;overflow=hidden;rotatable=0;points=[[0,0.5],[1,0.5]];portConstraint=eastwest;rounded=0;shadow=0;html=0;" vertex="1" parent="zkfFHV4jXpPFQw0GAbJ--0">
          <mxGeometry y="376" width="350" height="26" as="geometry" />
        </mxCell>
        <mxCell id="Ome7uWxihJjIIp5LtsuK-40" value="" style="line;html=1;strokeWidth=1;align=left;verticalAlign=middle;spacingTop=-1;spacingLeft=3;spacingRight=3;rotatable=0;labelPosition=right;points=[];portConstraint=eastwest;" vertex="1" parent="zkfFHV4jXpPFQw0GAbJ--0">
          <mxGeometry y="402" width="350" height="8" as="geometry" />
        </mxCell>
        <mxCell id="Ome7uWxihJjIIp5LtsuK-21" value="double  s3r1 = string Observacoes" style="text;align=left;verticalAlign=top;spacingLeft=4;spacingRight=4;overflow=hidden;rotatable=0;points=[[0,0.5],[1,0.5]];portConstraint=eastwest;rounded=0;shadow=0;html=0;" vertex="1" parent="zkfFHV4jXpPFQw0GAbJ--0">
          <mxGeometry y="410" width="350" height="26" as="geometry" />
        </mxCell>
        <mxCell id="Ome7uWxihJjIIp5LtsuK-22" value="double  s3r2 = string Observacoes" style="text;align=left;verticalAlign=top;spacingLeft=4;spacingRight=4;overflow=hidden;rotatable=0;points=[[0,0.5],[1,0.5]];portConstraint=eastwest;rounded=0;shadow=0;html=0;" vertex="1" parent="zkfFHV4jXpPFQw0GAbJ--0">
          <mxGeometry y="436" width="350" height="26" as="geometry" />
        </mxCell>
        <mxCell id="Ome7uWxihJjIIp5LtsuK-23" value="double s3r3 = string Observacoes" style="text;align=left;verticalAlign=top;spacingLeft=4;spacingRight=4;overflow=hidden;rotatable=0;points=[[0,0.5],[1,0.5]];portConstraint=eastwest;rounded=0;shadow=0;html=0;" vertex="1" parent="zkfFHV4jXpPFQw0GAbJ--0">
          <mxGeometry y="462" width="350" height="26" as="geometry" />
        </mxCell>
        <mxCell id="Ome7uWxihJjIIp5LtsuK-24" value="double s3r4 = string Observacoes" style="text;align=left;verticalAlign=top;spacingLeft=4;spacingRight=4;overflow=hidden;rotatable=0;points=[[0,0.5],[1,0.5]];portConstraint=eastwest;rounded=0;shadow=0;html=0;" vertex="1" parent="zkfFHV4jXpPFQw0GAbJ--0">
          <mxGeometry y="488" width="350" height="26" as="geometry" />
        </mxCell>
        <mxCell id="Ome7uWxihJjIIp5LtsuK-25" value="double s3r5 = string Observacoes" style="text;align=left;verticalAlign=top;spacingLeft=4;spacingRight=4;overflow=hidden;rotatable=0;points=[[0,0.5],[1,0.5]];portConstraint=eastwest;rounded=0;shadow=0;html=0;" vertex="1" parent="zkfFHV4jXpPFQw0GAbJ--0">
          <mxGeometry y="514" width="350" height="26" as="geometry" />
        </mxCell>
        <mxCell id="Ome7uWxihJjIIp5LtsuK-128" value="double Pontuacao" style="text;align=left;verticalAlign=top;spacingLeft=4;spacingRight=4;overflow=hidden;rotatable=0;points=[[0,0.5],[1,0.5]];portConstraint=eastwest;rounded=0;shadow=0;html=0;" vertex="1" parent="zkfFHV4jXpPFQw0GAbJ--0">
          <mxGeometry y="540" width="350" height="26" as="geometry" />
        </mxCell>
        <mxCell id="Ome7uWxihJjIIp5LtsuK-129" value="double Porcentagem" style="text;align=left;verticalAlign=top;spacingLeft=4;spacingRight=4;overflow=hidden;rotatable=0;points=[[0,0.5],[1,0.5]];portConstraint=eastwest;rounded=0;shadow=0;html=0;" vertex="1" parent="zkfFHV4jXpPFQw0GAbJ--0">
          <mxGeometry y="566" width="350" height="26" as="geometry" />
        </mxCell>
        <mxCell id="Ome7uWxihJjIIp5LtsuK-39" value="" style="line;html=1;strokeWidth=1;align=left;verticalAlign=middle;spacingTop=-1;spacingLeft=3;spacingRight=3;rotatable=0;labelPosition=right;points=[];portConstraint=eastwest;" vertex="1" parent="zkfFHV4jXpPFQw0GAbJ--0">
          <mxGeometry y="592" width="350" height="8" as="geometry" />
        </mxCell>
        <mxCell id="Ome7uWxihJjIIp5LtsuK-26" value="double s4r1 = string Observacoes" style="text;align=left;verticalAlign=top;spacingLeft=4;spacingRight=4;overflow=hidden;rotatable=0;points=[[0,0.5],[1,0.5]];portConstraint=eastwest;rounded=0;shadow=0;html=0;" vertex="1" parent="zkfFHV4jXpPFQw0GAbJ--0">
          <mxGeometry y="600" width="350" height="26" as="geometry" />
        </mxCell>
        <mxCell id="Ome7uWxihJjIIp5LtsuK-27" value="double s4r2 = string Observacoes" style="text;align=left;verticalAlign=top;spacingLeft=4;spacingRight=4;overflow=hidden;rotatable=0;points=[[0,0.5],[1,0.5]];portConstraint=eastwest;rounded=0;shadow=0;html=0;" vertex="1" parent="zkfFHV4jXpPFQw0GAbJ--0">
          <mxGeometry y="626" width="350" height="26" as="geometry" />
        </mxCell>
        <mxCell id="Ome7uWxihJjIIp5LtsuK-28" value="double s4r3 = string Observacoes" style="text;align=left;verticalAlign=top;spacingLeft=4;spacingRight=4;overflow=hidden;rotatable=0;points=[[0,0.5],[1,0.5]];portConstraint=eastwest;rounded=0;shadow=0;html=0;" vertex="1" parent="zkfFHV4jXpPFQw0GAbJ--0">
          <mxGeometry y="652" width="350" height="26" as="geometry" />
        </mxCell>
        <mxCell id="Ome7uWxihJjIIp5LtsuK-29" value="double s4r4 = string Observacoes" style="text;align=left;verticalAlign=top;spacingLeft=4;spacingRight=4;overflow=hidden;rotatable=0;points=[[0,0.5],[1,0.5]];portConstraint=eastwest;rounded=0;shadow=0;html=0;" vertex="1" parent="zkfFHV4jXpPFQw0GAbJ--0">
          <mxGeometry y="678" width="350" height="26" as="geometry" />
        </mxCell>
        <mxCell id="Ome7uWxihJjIIp5LtsuK-30" value="double s4r5 = string Observacoes" style="text;align=left;verticalAlign=top;spacingLeft=4;spacingRight=4;overflow=hidden;rotatable=0;points=[[0,0.5],[1,0.5]];portConstraint=eastwest;rounded=0;shadow=0;html=0;" vertex="1" parent="zkfFHV4jXpPFQw0GAbJ--0">
          <mxGeometry y="704" width="350" height="26" as="geometry" />
        </mxCell>
        <mxCell id="Ome7uWxihJjIIp5LtsuK-130" value="double Pontuacao" style="text;align=left;verticalAlign=top;spacingLeft=4;spacingRight=4;overflow=hidden;rotatable=0;points=[[0,0.5],[1,0.5]];portConstraint=eastwest;rounded=0;shadow=0;html=0;" vertex="1" parent="zkfFHV4jXpPFQw0GAbJ--0">
          <mxGeometry y="730" width="350" height="26" as="geometry" />
        </mxCell>
        <mxCell id="Ome7uWxihJjIIp5LtsuK-131" value="double Porcentagem" style="text;align=left;verticalAlign=top;spacingLeft=4;spacingRight=4;overflow=hidden;rotatable=0;points=[[0,0.5],[1,0.5]];portConstraint=eastwest;rounded=0;shadow=0;html=0;" vertex="1" parent="zkfFHV4jXpPFQw0GAbJ--0">
          <mxGeometry y="756" width="350" height="26" as="geometry" />
        </mxCell>
        <mxCell id="Ome7uWxihJjIIp5LtsuK-37" value="" style="line;html=1;strokeWidth=1;align=left;verticalAlign=middle;spacingTop=-1;spacingLeft=3;spacingRight=3;rotatable=0;labelPosition=right;points=[];portConstraint=eastwest;" vertex="1" parent="zkfFHV4jXpPFQw0GAbJ--0">
          <mxGeometry y="782" width="350" height="8" as="geometry" />
        </mxCell>
        <mxCell id="Ome7uWxihJjIIp5LtsuK-31" value="double s5r1 = string Observacoes" style="text;align=left;verticalAlign=top;spacingLeft=4;spacingRight=4;overflow=hidden;rotatable=0;points=[[0,0.5],[1,0.5]];portConstraint=eastwest;rounded=0;shadow=0;html=0;" vertex="1" parent="zkfFHV4jXpPFQw0GAbJ--0">
          <mxGeometry y="790" width="350" height="26" as="geometry" />
        </mxCell>
        <mxCell id="Ome7uWxihJjIIp5LtsuK-32" value="double s5r2 = string Observacoes" style="text;align=left;verticalAlign=top;spacingLeft=4;spacingRight=4;overflow=hidden;rotatable=0;points=[[0,0.5],[1,0.5]];portConstraint=eastwest;rounded=0;shadow=0;html=0;" vertex="1" parent="zkfFHV4jXpPFQw0GAbJ--0">
          <mxGeometry y="816" width="350" height="26" as="geometry" />
        </mxCell>
        <mxCell id="Ome7uWxihJjIIp5LtsuK-33" value="double s5r3 = string Observacoes" style="text;align=left;verticalAlign=top;spacingLeft=4;spacingRight=4;overflow=hidden;rotatable=0;points=[[0,0.5],[1,0.5]];portConstraint=eastwest;rounded=0;shadow=0;html=0;" vertex="1" parent="zkfFHV4jXpPFQw0GAbJ--0">
          <mxGeometry y="842" width="350" height="26" as="geometry" />
        </mxCell>
        <mxCell id="Ome7uWxihJjIIp5LtsuK-34" value="double s5r4 = string Observacoes" style="text;align=left;verticalAlign=top;spacingLeft=4;spacingRight=4;overflow=hidden;rotatable=0;points=[[0,0.5],[1,0.5]];portConstraint=eastwest;rounded=0;shadow=0;html=0;" vertex="1" parent="zkfFHV4jXpPFQw0GAbJ--0">
          <mxGeometry y="868" width="350" height="26" as="geometry" />
        </mxCell>
        <mxCell id="Ome7uWxihJjIIp5LtsuK-35" value="double s5r5 = string Observacoes" style="text;align=left;verticalAlign=top;spacingLeft=4;spacingRight=4;overflow=hidden;rotatable=0;points=[[0,0.5],[1,0.5]];portConstraint=eastwest;rounded=0;shadow=0;html=0;" vertex="1" parent="zkfFHV4jXpPFQw0GAbJ--0">
          <mxGeometry y="894" width="350" height="26" as="geometry" />
        </mxCell>
        <mxCell id="Ome7uWxihJjIIp5LtsuK-132" value="double Pontuacao" style="text;align=left;verticalAlign=top;spacingLeft=4;spacingRight=4;overflow=hidden;rotatable=0;points=[[0,0.5],[1,0.5]];portConstraint=eastwest;rounded=0;shadow=0;html=0;" vertex="1" parent="zkfFHV4jXpPFQw0GAbJ--0">
          <mxGeometry y="920" width="350" height="26" as="geometry" />
        </mxCell>
        <mxCell id="Ome7uWxihJjIIp5LtsuK-133" value="double Porcentagem" style="text;align=left;verticalAlign=top;spacingLeft=4;spacingRight=4;overflow=hidden;rotatable=0;points=[[0,0.5],[1,0.5]];portConstraint=eastwest;rounded=0;shadow=0;html=0;" vertex="1" parent="zkfFHV4jXpPFQw0GAbJ--0">
          <mxGeometry y="946" width="350" height="26" as="geometry" />
        </mxCell>
        <mxCell id="Ome7uWxihJjIIp5LtsuK-134" value="" style="line;html=1;strokeWidth=1;align=left;verticalAlign=middle;spacingTop=-1;spacingLeft=3;spacingRight=3;rotatable=0;labelPosition=right;points=[];portConstraint=eastwest;" vertex="1" parent="zkfFHV4jXpPFQw0GAbJ--0">
          <mxGeometry y="972" width="350" height="2" as="geometry" />
        </mxCell>
        <mxCell id="Ome7uWxihJjIIp5LtsuK-55" style="edgeStyle=orthogonalEdgeStyle;rounded=0;orthogonalLoop=1;jettySize=auto;html=1;entryX=0;entryY=0.5;entryDx=0;entryDy=0;" edge="1" parent="WIyWlLk6GJQsqaUBKTNV-1" source="zkfFHV4jXpPFQw0GAbJ--17" target="Ome7uWxihJjIIp5LtsuK-47">
          <mxGeometry relative="1" as="geometry" />
        </mxCell>
        <mxCell id="Ome7uWxihJjIIp5LtsuK-88" style="edgeStyle=orthogonalEdgeStyle;rounded=0;orthogonalLoop=1;jettySize=auto;html=1;entryX=0.5;entryY=0;entryDx=0;entryDy=0;" edge="1" parent="WIyWlLk6GJQsqaUBKTNV-1" source="zkfFHV4jXpPFQw0GAbJ--17" target="Ome7uWxihJjIIp5LtsuK-56">
          <mxGeometry relative="1" as="geometry" />
        </mxCell>
        <mxCell id="zkfFHV4jXpPFQw0GAbJ--17" value="Pontuacao" style="swimlane;fontStyle=0;align=center;verticalAlign=top;childLayout=stackLayout;horizontal=1;startSize=26;horizontalStack=0;resizeParent=1;resizeLast=0;collapsible=1;marginBottom=0;rounded=0;shadow=0;strokeWidth=1;" parent="WIyWlLk6GJQsqaUBKTNV-1" vertex="1">
          <mxGeometry x="900" y="-360" width="160" height="130" as="geometry">
            <mxRectangle x="550" y="140" width="160" height="26" as="alternateBounds" />
          </mxGeometry>
        </mxCell>
        <mxCell id="zkfFHV4jXpPFQw0GAbJ--23" value="" style="line;html=1;strokeWidth=1;align=left;verticalAlign=middle;spacingTop=-1;spacingLeft=3;spacingRight=3;rotatable=0;labelPosition=right;points=[];portConstraint=eastwest;" parent="zkfFHV4jXpPFQw0GAbJ--17" vertex="1">
          <mxGeometry y="26" width="160" height="8" as="geometry" />
        </mxCell>
        <mxCell id="Ome7uWxihJjIIp5LtsuK-42" value="double NC" style="text;align=left;verticalAlign=top;spacingLeft=4;spacingRight=4;overflow=hidden;rotatable=0;points=[[0,0.5],[1,0.5]];portConstraint=eastwest;" vertex="1" parent="zkfFHV4jXpPFQw0GAbJ--17">
          <mxGeometry y="34" width="160" height="26" as="geometry" />
        </mxCell>
        <mxCell id="Ome7uWxihJjIIp5LtsuK-87" style="edgeStyle=orthogonalEdgeStyle;rounded=0;orthogonalLoop=1;jettySize=auto;html=1;entryX=1.011;entryY=0.1;entryDx=0;entryDy=0;entryPerimeter=0;" edge="1" parent="WIyWlLk6GJQsqaUBKTNV-1" source="Ome7uWxihJjIIp5LtsuK-47" target="Ome7uWxihJjIIp5LtsuK-59">
          <mxGeometry relative="1" as="geometry" />
        </mxCell>
        <mxCell id="Ome7uWxihJjIIp5LtsuK-47" value="Observações / Recomendações" style="swimlane;fontStyle=0;align=center;verticalAlign=top;childLayout=stackLayout;horizontal=1;startSize=26;horizontalStack=0;resizeParent=1;resizeLast=0;collapsible=1;marginBottom=0;rounded=0;shadow=0;strokeWidth=1;" vertex="1" parent="WIyWlLk6GJQsqaUBKTNV-1">
          <mxGeometry x="1150" y="-377.5" width="270" height="165" as="geometry">
            <mxRectangle x="630" y="-360" width="160" height="26" as="alternateBounds" />
          </mxGeometry>
        </mxCell>
        <mxCell id="Ome7uWxihJjIIp5LtsuK-48" value="" style="line;html=1;strokeWidth=1;align=left;verticalAlign=middle;spacingTop=-1;spacingLeft=3;spacingRight=3;rotatable=0;labelPosition=right;points=[];portConstraint=eastwest;" vertex="1" parent="Ome7uWxihJjIIp5LtsuK-47">
          <mxGeometry y="26" width="270" height="8" as="geometry" />
        </mxCell>
        <mxCell id="Ome7uWxihJjIIp5LtsuK-49" value="string recomendacoes" style="text;align=left;verticalAlign=top;spacingLeft=4;spacingRight=4;overflow=hidden;rotatable=0;points=[[0,0.5],[1,0.5]];portConstraint=eastwest;" vertex="1" parent="Ome7uWxihJjIIp5LtsuK-47">
          <mxGeometry y="34" width="270" height="26" as="geometry" />
        </mxCell>
        <mxCell id="Ome7uWxihJjIIp5LtsuK-60" value="double script validacao : Se &gt;= 4, 1º SENSO OK." style="text;align=left;verticalAlign=top;spacingLeft=4;spacingRight=4;overflow=hidden;rotatable=0;points=[[0,0.5],[1,0.5]];portConstraint=eastwest;" vertex="1" parent="Ome7uWxihJjIIp5LtsuK-47">
          <mxGeometry y="60" width="270" height="26" as="geometry" />
        </mxCell>
        <mxCell id="Ome7uWxihJjIIp5LtsuK-61" value="string recomendacoes" style="text;align=left;verticalAlign=top;spacingLeft=4;spacingRight=4;overflow=hidden;rotatable=0;points=[[0,0.5],[1,0.5]];portConstraint=eastwest;" vertex="1" parent="Ome7uWxihJjIIp5LtsuK-47">
          <mxGeometry y="86" width="270" height="26" as="geometry" />
        </mxCell>
        <mxCell id="Ome7uWxihJjIIp5LtsuK-56" value="TOTAL DE PONTOS " style="swimlane;fontStyle=0;align=center;verticalAlign=top;childLayout=stackLayout;horizontal=1;startSize=26;horizontalStack=0;resizeParent=1;resizeLast=0;collapsible=1;marginBottom=0;rounded=0;shadow=0;strokeWidth=1;" vertex="1" parent="WIyWlLk6GJQsqaUBKTNV-1">
          <mxGeometry x="1050" y="-170" width="180" height="120" as="geometry">
            <mxRectangle x="630" y="-360" width="160" height="26" as="alternateBounds" />
          </mxGeometry>
        </mxCell>
        <mxCell id="Ome7uWxihJjIIp5LtsuK-57" value="" style="line;html=1;strokeWidth=1;align=left;verticalAlign=middle;spacingTop=-1;spacingLeft=3;spacingRight=3;rotatable=0;labelPosition=right;points=[];portConstraint=eastwest;" vertex="1" parent="Ome7uWxihJjIIp5LtsuK-56">
          <mxGeometry y="26" width="180" height="8" as="geometry" />
        </mxCell>
        <mxCell id="Ome7uWxihJjIIp5LtsuK-58" value="double Pontuacao" style="text;align=left;verticalAlign=top;spacingLeft=4;spacingRight=4;overflow=hidden;rotatable=0;points=[[0,0.5],[1,0.5]];portConstraint=eastwest;" vertex="1" parent="Ome7uWxihJjIIp5LtsuK-56">
          <mxGeometry y="34" width="180" height="26" as="geometry" />
        </mxCell>
        <mxCell id="Ome7uWxihJjIIp5LtsuK-59" value="double Porcentagem" style="text;align=left;verticalAlign=top;spacingLeft=4;spacingRight=4;overflow=hidden;rotatable=0;points=[[0,0.5],[1,0.5]];portConstraint=eastwest;" vertex="1" parent="Ome7uWxihJjIIp5LtsuK-56">
          <mxGeometry y="60" width="180" height="30" as="geometry" />
        </mxCell>
        <mxCell id="Ome7uWxihJjIIp5LtsuK-65" value="double MediaTotal" style="text;align=left;verticalAlign=top;spacingLeft=4;spacingRight=4;overflow=hidden;rotatable=0;points=[[0,0.5],[1,0.5]];portConstraint=eastwest;" vertex="1" parent="Ome7uWxihJjIIp5LtsuK-56">
          <mxGeometry y="90" width="180" height="30" as="geometry" />
        </mxCell>
        <mxCell id="Ome7uWxihJjIIp5LtsuK-86" style="edgeStyle=orthogonalEdgeStyle;rounded=0;orthogonalLoop=1;jettySize=auto;html=1;" edge="1" parent="WIyWlLk6GJQsqaUBKTNV-1" source="Ome7uWxihJjIIp5LtsuK-66" target="Ome7uWxihJjIIp5LtsuK-85">
          <mxGeometry relative="1" as="geometry" />
        </mxCell>
        <mxCell id="Ome7uWxihJjIIp5LtsuK-66" value="Area" style="swimlane;fontStyle=0;align=center;verticalAlign=top;childLayout=stackLayout;horizontal=1;startSize=26;horizontalStack=0;resizeParent=1;resizeLast=0;collapsible=1;marginBottom=0;rounded=0;shadow=0;strokeWidth=1;" vertex="1" parent="WIyWlLk6GJQsqaUBKTNV-1">
          <mxGeometry x="-430" y="-280" width="180" height="570" as="geometry">
            <mxRectangle x="630" y="-360" width="160" height="26" as="alternateBounds" />
          </mxGeometry>
        </mxCell>
        <mxCell id="Ome7uWxihJjIIp5LtsuK-67" value="" style="line;html=1;strokeWidth=1;align=left;verticalAlign=middle;spacingTop=-1;spacingLeft=3;spacingRight=3;rotatable=0;labelPosition=right;points=[];portConstraint=eastwest;" vertex="1" parent="Ome7uWxihJjIIp5LtsuK-66">
          <mxGeometry y="26" width="180" height="8" as="geometry" />
        </mxCell>
        <mxCell id="Ome7uWxihJjIIp5LtsuK-68" value="Brintador" style="text;align=left;verticalAlign=top;spacingLeft=4;spacingRight=4;overflow=hidden;rotatable=0;points=[[0,0.5],[1,0.5]];portConstraint=eastwest;fillColor=#e1d5e7;strokeColor=#9673a6;" vertex="1" parent="Ome7uWxihJjIIp5LtsuK-66">
          <mxGeometry y="34" width="180" height="26" as="geometry" />
        </mxCell>
        <mxCell id="Ome7uWxihJjIIp5LtsuK-69" value="calcinacao" style="text;align=left;verticalAlign=top;spacingLeft=4;spacingRight=4;overflow=hidden;rotatable=0;points=[[0,0.5],[1,0.5]];portConstraint=eastwest;fillColor=#e1d5e7;strokeColor=#9673a6;" vertex="1" parent="Ome7uWxihJjIIp5LtsuK-66">
          <mxGeometry y="60" width="180" height="30" as="geometry" />
        </mxCell>
        <mxCell id="Ome7uWxihJjIIp5LtsuK-70" value="Preparacao" style="text;align=left;verticalAlign=top;spacingLeft=4;spacingRight=4;overflow=hidden;rotatable=0;points=[[0,0.5],[1,0.5]];portConstraint=eastwest;fillColor=#e1d5e7;strokeColor=#9673a6;" vertex="1" parent="Ome7uWxihJjIIp5LtsuK-66">
          <mxGeometry y="90" width="180" height="30" as="geometry" />
        </mxCell>
        <mxCell id="Ome7uWxihJjIIp5LtsuK-71" value="Misturador" style="text;align=left;verticalAlign=top;spacingLeft=4;spacingRight=4;overflow=hidden;rotatable=0;points=[[0,0.5],[1,0.5]];portConstraint=eastwest;fillColor=#e1d5e7;strokeColor=#9673a6;" vertex="1" parent="Ome7uWxihJjIIp5LtsuK-66">
          <mxGeometry y="120" width="180" height="30" as="geometry" />
        </mxCell>
        <mxCell id="Ome7uWxihJjIIp5LtsuK-72" value="Stacker" style="text;align=left;verticalAlign=top;spacingLeft=4;spacingRight=4;overflow=hidden;rotatable=0;points=[[0,0.5],[1,0.5]];portConstraint=eastwest;fillColor=#f5f5f5;strokeColor=#666666;fontColor=#333333;" vertex="1" parent="Ome7uWxihJjIIp5LtsuK-66">
          <mxGeometry y="150" width="180" height="30" as="geometry" />
        </mxCell>
        <mxCell id="Ome7uWxihJjIIp5LtsuK-214" value="Cantoneira Embaladora" style="text;align=left;verticalAlign=top;spacingLeft=4;spacingRight=4;overflow=hidden;rotatable=0;points=[[0,0.5],[1,0.5]];portConstraint=eastwest;fillColor=#f5f5f5;strokeColor=#666666;fontColor=#333333;" vertex="1" parent="Ome7uWxihJjIIp5LtsuK-66">
          <mxGeometry y="180" width="180" height="30" as="geometry" />
        </mxCell>
        <mxCell id="Ome7uWxihJjIIp5LtsuK-73" value="Cantoneira Embaladora" style="text;align=left;verticalAlign=top;spacingLeft=4;spacingRight=4;overflow=hidden;rotatable=0;points=[[0,0.5],[1,0.5]];portConstraint=eastwest;fillColor=#f5f5f5;strokeColor=#666666;fontColor=#333333;" vertex="1" parent="Ome7uWxihJjIIp5LtsuK-66">
          <mxGeometry y="210" width="180" height="30" as="geometry" />
        </mxCell>
        <mxCell id="Ome7uWxihJjIIp5LtsuK-74" value="Serra de Tiras" style="text;align=left;verticalAlign=top;spacingLeft=4;spacingRight=4;overflow=hidden;rotatable=0;points=[[0,0.5],[1,0.5]];portConstraint=eastwest;fillColor=#f5f5f5;strokeColor=#666666;fontColor=#333333;" vertex="1" parent="Ome7uWxihJjIIp5LtsuK-66">
          <mxGeometry y="240" width="180" height="30" as="geometry" />
        </mxCell>
        <mxCell id="Ome7uWxihJjIIp5LtsuK-75" value="Deposito de Cartao" style="text;align=left;verticalAlign=top;spacingLeft=4;spacingRight=4;overflow=hidden;rotatable=0;points=[[0,0.5],[1,0.5]];portConstraint=eastwest;fillColor=#f5f5f5;strokeColor=#666666;fontColor=#333333;" vertex="1" parent="Ome7uWxihJjIIp5LtsuK-66">
          <mxGeometry y="270" width="180" height="30" as="geometry" />
        </mxCell>
        <mxCell id="Ome7uWxihJjIIp5LtsuK-76" value="Qualidade" style="text;align=left;verticalAlign=top;spacingLeft=4;spacingRight=4;overflow=hidden;rotatable=0;points=[[0,0.5],[1,0.5]];portConstraint=eastwest;fillColor=#d5e8d4;strokeColor=#82b366;" vertex="1" parent="Ome7uWxihJjIIp5LtsuK-66">
          <mxGeometry y="300" width="180" height="30" as="geometry" />
        </mxCell>
        <mxCell id="Ome7uWxihJjIIp5LtsuK-77" value="Logistica" style="text;align=left;verticalAlign=top;spacingLeft=4;spacingRight=4;overflow=hidden;rotatable=0;points=[[0,0.5],[1,0.5]];portConstraint=eastwest;fillColor=#d5e8d4;strokeColor=#82b366;" vertex="1" parent="Ome7uWxihJjIIp5LtsuK-66">
          <mxGeometry y="330" width="180" height="30" as="geometry" />
        </mxCell>
        <mxCell id="Ome7uWxihJjIIp5LtsuK-78" value="Mecanica" style="text;align=left;verticalAlign=top;spacingLeft=4;spacingRight=4;overflow=hidden;rotatable=0;points=[[0,0.5],[1,0.5]];portConstraint=eastwest;fillColor=#d5e8d4;strokeColor=#82b366;" vertex="1" parent="Ome7uWxihJjIIp5LtsuK-66">
          <mxGeometry y="360" width="180" height="30" as="geometry" />
        </mxCell>
        <mxCell id="Ome7uWxihJjIIp5LtsuK-79" value="Eletrica" style="text;align=left;verticalAlign=top;spacingLeft=4;spacingRight=4;overflow=hidden;rotatable=0;points=[[0,0.5],[1,0.5]];portConstraint=eastwest;fillColor=#d5e8d4;strokeColor=#82b366;" vertex="1" parent="Ome7uWxihJjIIp5LtsuK-66">
          <mxGeometry y="390" width="180" height="30" as="geometry" />
        </mxCell>
        <mxCell id="Ome7uWxihJjIIp5LtsuK-80" value="Tesoura" style="text;align=left;verticalAlign=top;spacingLeft=4;spacingRight=4;overflow=hidden;rotatable=0;points=[[0,0.5],[1,0.5]];portConstraint=eastwest;fillColor=#dae8fc;strokeColor=#6c8ebf;" vertex="1" parent="Ome7uWxihJjIIp5LtsuK-66">
          <mxGeometry y="420" width="180" height="30" as="geometry" />
        </mxCell>
        <mxCell id="Ome7uWxihJjIIp5LtsuK-81" value="Fabrica de Perfil" style="text;align=left;verticalAlign=top;spacingLeft=4;spacingRight=4;overflow=hidden;rotatable=0;points=[[0,0.5],[1,0.5]];portConstraint=eastwest;fillColor=#dae8fc;strokeColor=#6c8ebf;" vertex="1" parent="Ome7uWxihJjIIp5LtsuK-66">
          <mxGeometry y="450" width="180" height="30" as="geometry" />
        </mxCell>
        <mxCell id="Ome7uWxihJjIIp5LtsuK-82" value="Almoxarifado" style="text;align=left;verticalAlign=top;spacingLeft=4;spacingRight=4;overflow=hidden;rotatable=0;points=[[0,0.5],[1,0.5]];portConstraint=eastwest;fillColor=#dae8fc;strokeColor=#6c8ebf;" vertex="1" parent="Ome7uWxihJjIIp5LtsuK-66">
          <mxGeometry y="480" width="180" height="30" as="geometry" />
        </mxCell>
        <mxCell id="Ome7uWxihJjIIp5LtsuK-83" value="Deposito de Materia Prima" style="text;align=left;verticalAlign=top;spacingLeft=4;spacingRight=4;overflow=hidden;rotatable=0;points=[[0,0.5],[1,0.5]];portConstraint=eastwest;fillColor=#dae8fc;strokeColor=#6c8ebf;" vertex="1" parent="Ome7uWxihJjIIp5LtsuK-66">
          <mxGeometry y="510" width="180" height="30" as="geometry" />
        </mxCell>
        <mxCell id="Ome7uWxihJjIIp5LtsuK-84" value="Chiller" style="text;align=left;verticalAlign=top;spacingLeft=4;spacingRight=4;overflow=hidden;rotatable=0;points=[[0,0.5],[1,0.5]];portConstraint=eastwest;fillColor=#dae8fc;strokeColor=#6c8ebf;" vertex="1" parent="Ome7uWxihJjIIp5LtsuK-66">
          <mxGeometry y="540" width="180" height="30" as="geometry" />
        </mxCell>
        <mxCell id="Ome7uWxihJjIIp5LtsuK-92" value="&lt;h1&gt;Resultado 5&#39;s Mensal&lt;/h1&gt;&lt;p&gt;Lorem ipsum dolor sit amet.&lt;/p&gt;" style="text;html=1;strokeColor=none;fillColor=none;spacing=5;spacingTop=-20;whiteSpace=wrap;overflow=hidden;rounded=0;" vertex="1" parent="WIyWlLk6GJQsqaUBKTNV-1">
          <mxGeometry x="-250" y="-410" width="200" height="110" as="geometry" />
        </mxCell>
        <mxCell id="Ome7uWxihJjIIp5LtsuK-136" value="double MediaTotal" style="text;align=left;verticalAlign=top;spacingLeft=4;spacingRight=4;overflow=hidden;rotatable=0;points=[[0,0.5],[1,0.5]];portConstraint=eastwest;" vertex="1" parent="WIyWlLk6GJQsqaUBKTNV-1">
          <mxGeometry x="30" y="540" width="350" height="30" as="geometry" />
        </mxCell>
        <mxCell id="Ome7uWxihJjIIp5LtsuK-137" value="Auditoria/Solicitacoes" style="swimlane;fontStyle=0;align=center;verticalAlign=top;childLayout=stackLayout;horizontal=1;startSize=26;horizontalStack=0;resizeParent=1;resizeLast=0;collapsible=1;marginBottom=0;rounded=0;shadow=0;strokeWidth=1;" vertex="1" parent="WIyWlLk6GJQsqaUBKTNV-1">
          <mxGeometry x="490" y="-90" width="320" height="220" as="geometry">
            <mxRectangle x="630" y="-360" width="160" height="26" as="alternateBounds" />
          </mxGeometry>
        </mxCell>
        <mxCell id="Ome7uWxihJjIIp5LtsuK-138" value="" style="line;html=1;strokeWidth=1;align=left;verticalAlign=middle;spacingTop=-1;spacingLeft=3;spacingRight=3;rotatable=0;labelPosition=right;points=[];portConstraint=eastwest;" vertex="1" parent="Ome7uWxihJjIIp5LtsuK-137">
          <mxGeometry y="26" width="320" height="8" as="geometry" />
        </mxCell>
        <mxCell id="Ome7uWxihJjIIp5LtsuK-143" value="string Auditado" style="text;align=left;verticalAlign=top;spacingLeft=4;spacingRight=4;overflow=hidden;rotatable=0;points=[[0,0.5],[1,0.5]];portConstraint=eastwest;" vertex="1" parent="WIyWlLk6GJQsqaUBKTNV-1">
          <mxGeometry x="490" y="-26" width="320" height="26" as="geometry" />
        </mxCell>
        <mxCell id="Ome7uWxihJjIIp5LtsuK-145" value="dateTime Data" style="text;align=left;verticalAlign=top;spacingLeft=4;spacingRight=4;overflow=hidden;rotatable=0;points=[[0,0.5],[1,0.5]];portConstraint=eastwest;" vertex="1" parent="WIyWlLk6GJQsqaUBKTNV-1">
          <mxGeometry x="490" y="26" width="320" height="26" as="geometry" />
        </mxCell>
        <mxCell id="Ome7uWxihJjIIp5LtsuK-146" value="string Auditor" style="text;align=left;verticalAlign=top;spacingLeft=4;spacingRight=4;overflow=hidden;rotatable=0;points=[[0,0.5],[1,0.5]];portConstraint=eastwest;" vertex="1" parent="WIyWlLk6GJQsqaUBKTNV-1">
          <mxGeometry x="490" width="320" height="26" as="geometry" />
        </mxCell>
        <mxCell id="Ome7uWxihJjIIp5LtsuK-147" value="ID Area" style="text;align=left;verticalAlign=top;spacingLeft=4;spacingRight=4;overflow=hidden;rotatable=0;points=[[0,0.5],[1,0.5]];portConstraint=eastwest;" vertex="1" parent="WIyWlLk6GJQsqaUBKTNV-1">
          <mxGeometry x="490" y="-50" width="320" height="26" as="geometry" />
        </mxCell>
        <mxCell id="Ome7uWxihJjIIp5LtsuK-150" value="Setor" style="swimlane;fontStyle=0;align=center;verticalAlign=top;childLayout=stackLayout;horizontal=1;startSize=26;horizontalStack=0;resizeParent=1;resizeLast=0;collapsible=1;marginBottom=0;rounded=0;shadow=0;strokeWidth=1;gradientColor=#b3b3b3;fillColor=#f5f5f5;strokeColor=#666666;" vertex="1" parent="WIyWlLk6GJQsqaUBKTNV-1">
          <mxGeometry x="-900" y="-280" width="180" height="540" as="geometry">
            <mxRectangle x="630" y="-360" width="160" height="26" as="alternateBounds" />
          </mxGeometry>
        </mxCell>
        <mxCell id="Ome7uWxihJjIIp5LtsuK-151" value="" style="line;html=1;strokeWidth=1;align=left;verticalAlign=middle;spacingTop=-1;spacingLeft=3;spacingRight=3;rotatable=0;labelPosition=right;points=[];portConstraint=eastwest;" vertex="1" parent="Ome7uWxihJjIIp5LtsuK-150">
          <mxGeometry y="26" width="180" height="8" as="geometry" />
        </mxCell>
        <mxCell id="Ome7uWxihJjIIp5LtsuK-152" value="Id " style="text;align=left;verticalAlign=top;spacingLeft=4;spacingRight=4;overflow=hidden;rotatable=0;points=[[0,0.5],[1,0.5]];portConstraint=eastwest;fillColor=#e1d5e7;strokeColor=#9673a6;" vertex="1" parent="Ome7uWxihJjIIp5LtsuK-150">
          <mxGeometry y="34" width="180" height="26" as="geometry" />
        </mxCell>
        <mxCell id="Ome7uWxihJjIIp5LtsuK-153" value="Descricao" style="text;align=left;verticalAlign=top;spacingLeft=4;spacingRight=4;overflow=hidden;rotatable=0;points=[[0,0.5],[1,0.5]];portConstraint=eastwest;fillColor=#e1d5e7;strokeColor=#9673a6;" vertex="1" parent="Ome7uWxihJjIIp5LtsuK-150">
          <mxGeometry y="60" width="180" height="30" as="geometry" />
        </mxCell>
        <mxCell id="Ome7uWxihJjIIp5LtsuK-154" value="1 producao" style="text;align=left;verticalAlign=top;spacingLeft=4;spacingRight=4;overflow=hidden;rotatable=0;points=[[0,0.5],[1,0.5]];portConstraint=eastwest;fillColor=#f5f5f5;strokeColor=#666666;fontColor=#333333;" vertex="1" parent="Ome7uWxihJjIIp5LtsuK-150">
          <mxGeometry y="90" width="180" height="30" as="geometry" />
        </mxCell>
        <mxCell id="Ome7uWxihJjIIp5LtsuK-155" value="2 Manutencao mecanica" style="text;align=left;verticalAlign=top;spacingLeft=4;spacingRight=4;overflow=hidden;rotatable=0;points=[[0,0.5],[1,0.5]];portConstraint=eastwest;fillColor=#dae8fc;strokeColor=#6c8ebf;gradientColor=#7ea6e0;" vertex="1" parent="Ome7uWxihJjIIp5LtsuK-150">
          <mxGeometry y="120" width="180" height="30" as="geometry" />
        </mxCell>
        <mxCell id="Ome7uWxihJjIIp5LtsuK-188" value="3 Manutencao eletrica" style="text;align=left;verticalAlign=top;spacingLeft=4;spacingRight=4;overflow=hidden;rotatable=0;points=[[0,0.5],[1,0.5]];portConstraint=eastwest;fillColor=#d5e8d4;strokeColor=#82b366;gradientColor=#97d077;" vertex="1" parent="Ome7uWxihJjIIp5LtsuK-150">
          <mxGeometry y="150" width="180" height="30" as="geometry" />
        </mxCell>
        <mxCell id="Ome7uWxihJjIIp5LtsuK-156" value="4 Logistica / expedicao" style="text;align=left;verticalAlign=top;spacingLeft=4;spacingRight=4;overflow=hidden;rotatable=0;points=[[0,0.5],[1,0.5]];portConstraint=eastwest;fillColor=#ffcd28;strokeColor=#d79b00;gradientColor=#ffa500;" vertex="1" parent="Ome7uWxihJjIIp5LtsuK-150">
          <mxGeometry y="180" width="180" height="30" as="geometry" />
        </mxCell>
        <mxCell id="Ome7uWxihJjIIp5LtsuK-157" value="5 Laboratorio" style="text;align=left;verticalAlign=top;spacingLeft=4;spacingRight=4;overflow=hidden;rotatable=0;points=[[0,0.5],[1,0.5]];portConstraint=eastwest;fillColor=#fff2cc;strokeColor=#d6b656;gradientColor=#ffd966;" vertex="1" parent="Ome7uWxihJjIIp5LtsuK-150">
          <mxGeometry y="210" width="180" height="30" as="geometry" />
        </mxCell>
        <mxCell id="Ome7uWxihJjIIp5LtsuK-189" value="6 Almoxarifado" style="text;align=left;verticalAlign=top;spacingLeft=4;spacingRight=4;overflow=hidden;rotatable=0;points=[[0,0.5],[1,0.5]];portConstraint=eastwest;fillColor=#f8cecc;strokeColor=#b85450;gradientColor=#ea6b66;" vertex="1" parent="Ome7uWxihJjIIp5LtsuK-150">
          <mxGeometry y="240" width="180" height="30" as="geometry" />
        </mxCell>
        <mxCell id="Ome7uWxihJjIIp5LtsuK-169" value="TabelaArea" style="swimlane;fontStyle=0;align=center;verticalAlign=top;childLayout=stackLayout;horizontal=1;startSize=26;horizontalStack=0;resizeParent=1;resizeLast=0;collapsible=1;marginBottom=0;rounded=0;shadow=0;strokeWidth=1;" vertex="1" parent="WIyWlLk6GJQsqaUBKTNV-1">
          <mxGeometry x="-1190" y="-280" width="180" height="530" as="geometry">
            <mxRectangle x="630" y="-360" width="160" height="26" as="alternateBounds" />
          </mxGeometry>
        </mxCell>
        <mxCell id="Ome7uWxihJjIIp5LtsuK-170" value="" style="line;html=1;strokeWidth=1;align=left;verticalAlign=middle;spacingTop=-1;spacingLeft=3;spacingRight=3;rotatable=0;labelPosition=right;points=[];portConstraint=eastwest;" vertex="1" parent="Ome7uWxihJjIIp5LtsuK-169">
          <mxGeometry y="26" width="180" height="8" as="geometry" />
        </mxCell>
        <mxCell id="Ome7uWxihJjIIp5LtsuK-191" value="Id " style="text;align=left;verticalAlign=top;spacingLeft=4;spacingRight=4;overflow=hidden;rotatable=0;points=[[0,0.5],[1,0.5]];portConstraint=eastwest;fillColor=#e1d5e7;strokeColor=#9673a6;" vertex="1" parent="Ome7uWxihJjIIp5LtsuK-169">
          <mxGeometry y="34" width="180" height="26" as="geometry" />
        </mxCell>
        <mxCell id="Ome7uWxihJjIIp5LtsuK-171" value="Id setor" style="text;align=left;verticalAlign=top;spacingLeft=4;spacingRight=4;overflow=hidden;rotatable=0;points=[[0,0.5],[1,0.5]];portConstraint=eastwest;fillColor=#e1d5e7;strokeColor=#9673a6;" vertex="1" parent="Ome7uWxihJjIIp5LtsuK-169">
          <mxGeometry y="60" width="180" height="26" as="geometry" />
        </mxCell>
        <mxCell id="Ome7uWxihJjIIp5LtsuK-190" value="Descricao" style="text;align=left;verticalAlign=top;spacingLeft=4;spacingRight=4;overflow=hidden;rotatable=0;points=[[0,0.5],[1,0.5]];portConstraint=eastwest;fillColor=#e1d5e7;strokeColor=#9673a6;" vertex="1" parent="Ome7uWxihJjIIp5LtsuK-169">
          <mxGeometry y="86" width="180" height="30" as="geometry" />
        </mxCell>
        <mxCell id="Ome7uWxihJjIIp5LtsuK-213" value="Responsvel" style="text;align=left;verticalAlign=top;spacingLeft=4;spacingRight=4;overflow=hidden;rotatable=0;points=[[0,0.5],[1,0.5]];portConstraint=eastwest;fillColor=#e1d5e7;strokeColor=#9673a6;" vertex="1" parent="Ome7uWxihJjIIp5LtsuK-169">
          <mxGeometry y="116" width="180" height="30" as="geometry" />
        </mxCell>
        <mxCell id="Ome7uWxihJjIIp5LtsuK-196" style="edgeStyle=orthogonalEdgeStyle;rounded=0;orthogonalLoop=1;jettySize=auto;html=1;entryX=0;entryY=0.5;entryDx=0;entryDy=0;" edge="1" parent="WIyWlLk6GJQsqaUBKTNV-1" source="Ome7uWxihJjIIp5LtsuK-157" target="Ome7uWxihJjIIp5LtsuK-76">
          <mxGeometry relative="1" as="geometry">
            <mxPoint x="-510" y="-20" as="targetPoint" />
          </mxGeometry>
        </mxCell>
        <mxCell id="Ome7uWxihJjIIp5LtsuK-197" style="edgeStyle=orthogonalEdgeStyle;rounded=0;orthogonalLoop=1;jettySize=auto;html=1;entryX=0;entryY=0.5;entryDx=0;entryDy=0;" edge="1" parent="WIyWlLk6GJQsqaUBKTNV-1" source="Ome7uWxihJjIIp5LtsuK-156" target="Ome7uWxihJjIIp5LtsuK-77">
          <mxGeometry relative="1" as="geometry" />
        </mxCell>
        <mxCell id="Ome7uWxihJjIIp5LtsuK-198" style="edgeStyle=orthogonalEdgeStyle;rounded=0;orthogonalLoop=1;jettySize=auto;html=1;entryX=0;entryY=0.5;entryDx=0;entryDy=0;" edge="1" parent="WIyWlLk6GJQsqaUBKTNV-1" source="Ome7uWxihJjIIp5LtsuK-189" target="Ome7uWxihJjIIp5LtsuK-82">
          <mxGeometry relative="1" as="geometry" />
        </mxCell>
        <mxCell id="Ome7uWxihJjIIp5LtsuK-199" style="edgeStyle=orthogonalEdgeStyle;rounded=0;orthogonalLoop=1;jettySize=auto;html=1;entryX=0;entryY=0.5;entryDx=0;entryDy=0;gradientColor=#7ea6e0;fillColor=#dae8fc;strokeColor=#6c8ebf;" edge="1" parent="WIyWlLk6GJQsqaUBKTNV-1" source="Ome7uWxihJjIIp5LtsuK-155" target="Ome7uWxihJjIIp5LtsuK-78">
          <mxGeometry relative="1" as="geometry" />
        </mxCell>
        <mxCell id="Ome7uWxihJjIIp5LtsuK-200" style="edgeStyle=orthogonalEdgeStyle;rounded=0;orthogonalLoop=1;jettySize=auto;html=1;entryX=0;entryY=0.5;entryDx=0;entryDy=0;" edge="1" parent="WIyWlLk6GJQsqaUBKTNV-1" source="Ome7uWxihJjIIp5LtsuK-188" target="Ome7uWxihJjIIp5LtsuK-79">
          <mxGeometry relative="1" as="geometry" />
        </mxCell>
        <mxCell id="Ome7uWxihJjIIp5LtsuK-201" style="edgeStyle=orthogonalEdgeStyle;rounded=0;orthogonalLoop=1;jettySize=auto;html=1;entryX=0;entryY=0.5;entryDx=0;entryDy=0;" edge="1" parent="WIyWlLk6GJQsqaUBKTNV-1" source="Ome7uWxihJjIIp5LtsuK-154" target="Ome7uWxihJjIIp5LtsuK-68">
          <mxGeometry relative="1" as="geometry" />
        </mxCell>
        <mxCell id="Ome7uWxihJjIIp5LtsuK-202" style="edgeStyle=orthogonalEdgeStyle;rounded=0;orthogonalLoop=1;jettySize=auto;html=1;entryX=0;entryY=0.5;entryDx=0;entryDy=0;" edge="1" parent="WIyWlLk6GJQsqaUBKTNV-1" source="Ome7uWxihJjIIp5LtsuK-154" target="Ome7uWxihJjIIp5LtsuK-69">
          <mxGeometry relative="1" as="geometry" />
        </mxCell>
        <mxCell id="Ome7uWxihJjIIp5LtsuK-203" style="edgeStyle=orthogonalEdgeStyle;rounded=0;orthogonalLoop=1;jettySize=auto;html=1;entryX=0;entryY=0.5;entryDx=0;entryDy=0;" edge="1" parent="WIyWlLk6GJQsqaUBKTNV-1" source="Ome7uWxihJjIIp5LtsuK-154" target="Ome7uWxihJjIIp5LtsuK-70">
          <mxGeometry relative="1" as="geometry" />
        </mxCell>
        <mxCell id="Ome7uWxihJjIIp5LtsuK-204" style="edgeStyle=orthogonalEdgeStyle;rounded=0;orthogonalLoop=1;jettySize=auto;html=1;entryX=0;entryY=0.5;entryDx=0;entryDy=0;" edge="1" parent="WIyWlLk6GJQsqaUBKTNV-1" source="Ome7uWxihJjIIp5LtsuK-154" target="Ome7uWxihJjIIp5LtsuK-71">
          <mxGeometry relative="1" as="geometry" />
        </mxCell>
        <mxCell id="Ome7uWxihJjIIp5LtsuK-205" style="edgeStyle=orthogonalEdgeStyle;rounded=0;orthogonalLoop=1;jettySize=auto;html=1;entryX=0;entryY=0.5;entryDx=0;entryDy=0;" edge="1" parent="WIyWlLk6GJQsqaUBKTNV-1" source="Ome7uWxihJjIIp5LtsuK-154" target="Ome7uWxihJjIIp5LtsuK-72">
          <mxGeometry relative="1" as="geometry" />
        </mxCell>
        <mxCell id="Ome7uWxihJjIIp5LtsuK-206" style="edgeStyle=orthogonalEdgeStyle;rounded=0;orthogonalLoop=1;jettySize=auto;html=1;entryX=0;entryY=0.5;entryDx=0;entryDy=0;" edge="1" parent="WIyWlLk6GJQsqaUBKTNV-1" source="Ome7uWxihJjIIp5LtsuK-154" target="Ome7uWxihJjIIp5LtsuK-73">
          <mxGeometry relative="1" as="geometry" />
        </mxCell>
        <mxCell id="Ome7uWxihJjIIp5LtsuK-207" style="edgeStyle=orthogonalEdgeStyle;rounded=0;orthogonalLoop=1;jettySize=auto;html=1;entryX=0;entryY=0.5;entryDx=0;entryDy=0;" edge="1" parent="WIyWlLk6GJQsqaUBKTNV-1" source="Ome7uWxihJjIIp5LtsuK-154" target="Ome7uWxihJjIIp5LtsuK-74">
          <mxGeometry relative="1" as="geometry" />
        </mxCell>
        <mxCell id="Ome7uWxihJjIIp5LtsuK-208" style="edgeStyle=orthogonalEdgeStyle;rounded=0;orthogonalLoop=1;jettySize=auto;html=1;entryX=0;entryY=0.5;entryDx=0;entryDy=0;" edge="1" parent="WIyWlLk6GJQsqaUBKTNV-1" source="Ome7uWxihJjIIp5LtsuK-154" target="Ome7uWxihJjIIp5LtsuK-75">
          <mxGeometry relative="1" as="geometry" />
        </mxCell>
        <mxCell id="Ome7uWxihJjIIp5LtsuK-209" style="edgeStyle=orthogonalEdgeStyle;rounded=0;orthogonalLoop=1;jettySize=auto;html=1;entryX=0;entryY=0.5;entryDx=0;entryDy=0;" edge="1" parent="WIyWlLk6GJQsqaUBKTNV-1" source="Ome7uWxihJjIIp5LtsuK-154" target="Ome7uWxihJjIIp5LtsuK-80">
          <mxGeometry relative="1" as="geometry" />
        </mxCell>
        <mxCell id="Ome7uWxihJjIIp5LtsuK-210" style="edgeStyle=orthogonalEdgeStyle;rounded=0;orthogonalLoop=1;jettySize=auto;html=1;entryX=0;entryY=0.5;entryDx=0;entryDy=0;" edge="1" parent="WIyWlLk6GJQsqaUBKTNV-1" source="Ome7uWxihJjIIp5LtsuK-154" target="Ome7uWxihJjIIp5LtsuK-81">
          <mxGeometry relative="1" as="geometry" />
        </mxCell>
        <mxCell id="Ome7uWxihJjIIp5LtsuK-211" style="edgeStyle=orthogonalEdgeStyle;rounded=0;orthogonalLoop=1;jettySize=auto;html=1;entryX=0;entryY=0.5;entryDx=0;entryDy=0;" edge="1" parent="WIyWlLk6GJQsqaUBKTNV-1" source="Ome7uWxihJjIIp5LtsuK-154" target="Ome7uWxihJjIIp5LtsuK-83">
          <mxGeometry relative="1" as="geometry" />
        </mxCell>
        <mxCell id="Ome7uWxihJjIIp5LtsuK-212" style="edgeStyle=orthogonalEdgeStyle;rounded=0;orthogonalLoop=1;jettySize=auto;html=1;entryX=0;entryY=0.5;entryDx=0;entryDy=0;gradientColor=#b3b3b3;fillColor=#f5f5f5;strokeColor=#666666;" edge="1" parent="WIyWlLk6GJQsqaUBKTNV-1" source="Ome7uWxihJjIIp5LtsuK-154" target="Ome7uWxihJjIIp5LtsuK-84">
          <mxGeometry relative="1" as="geometry" />
        </mxCell>
        <mxCell id="Ome7uWxihJjIIp5LtsuK-215" style="edgeStyle=orthogonalEdgeStyle;rounded=0;orthogonalLoop=1;jettySize=auto;html=1;entryX=0;entryY=0.5;entryDx=0;entryDy=0;" edge="1" parent="WIyWlLk6GJQsqaUBKTNV-1" source="Ome7uWxihJjIIp5LtsuK-154" target="Ome7uWxihJjIIp5LtsuK-214">
          <mxGeometry relative="1" as="geometry" />
        </mxCell>
      </root>
    </mxGraphModel>
  </diagram>
</mxfile>
